<svg width="24" height="16" viewBox="0 0 24 16" fill="none" xmlns="http://www.w3.org/2000/svg">
<path d="M21.5 0H2C0.89543 0 0 0.89543 0 2V13.5C0 14.6046 0.89543 15.5 2 15.5H21.5C22.6046 15.5 23.5 14.6046 23.5 13.5V2C23.5 0.89543 22.6046 0 21.5 0Z" fill="#FAFAFA"/>
<path d="M2.78773 5.72961C2.26459 5.45165 1.66754 5.22809 1 5.07295L1.028 4.95214H3.76498C4.13596 4.96473 4.43699 5.07287 4.53495 5.45475L5.12977 8.20201L5.31198 9.02945L6.97797 4.95214H8.77679L6.10288 10.9251H4.30397L2.78773 5.72961ZM10.1 10.9314H8.39883L9.46285 4.95214H11.1639L10.1 10.9314ZM16.2668 5.09831L16.0354 6.38947L15.8816 6.32598C15.5737 6.20508 15.1674 6.08427 14.6144 6.09703C13.9427 6.09703 13.6415 6.35768 13.6345 6.61216C13.6345 6.89209 13.9989 7.07656 14.5939 7.35015C15.574 7.77634 16.0286 8.29789 16.0218 8.97856C16.0081 10.219 14.846 11.0206 13.0611 11.0206C12.2979 11.0141 11.5628 10.8675 11.1638 10.7023L11.4019 9.36011L11.6259 9.45564C12.1789 9.6785 12.5428 9.7737 13.222 9.7737C13.7118 9.7737 14.2369 9.58905 14.2436 9.18848C14.2436 8.92766 14.0199 8.73668 13.3617 8.44407C12.7178 8.15772 11.8568 7.68072 11.8708 6.82192C11.8781 5.65791 13.0611 4.84375 14.741 4.84375C15.399 4.84375 15.9312 4.97733 16.2668 5.09831ZM18.5278 8.81319H19.9417C19.8718 8.51424 19.5496 7.08299 19.5496 7.08299L19.4307 6.56778C19.3467 6.79038 19.1999 7.15299 19.2069 7.14023C19.2069 7.14023 18.6678 8.46969 18.5278 8.81319ZM20.6276 4.95214L22 10.9314H20.4249C20.4249 10.9314 20.2708 10.2444 20.2219 10.0344H18.0378C17.9746 10.1934 17.6808 10.9314 17.6808 10.9314H15.8958L18.4226 5.44824C18.5977 5.06018 18.906 4.95214 19.3118 4.95214H20.6276Z" fill="#333333"/>
</svg>
