<svg width="24" height="16" viewBox="0 0 24 16" fill="none" xmlns="http://www.w3.org/2000/svg">
<path d="M21.7472 15.4999L21.7494 15.4999C22.7045 15.5081 23.4881 14.7273 23.5 13.7542L23.5 1.7563C23.4962 1.28569 23.3089 0.836171 22.9797 0.506802C22.6514 0.178269 22.2089 -0.00385117 21.7472 7.08334e-05L1.75064 6.17735e-05C1.29109 -0.00385116 0.848576 0.178269 0.520279 0.506802C0.191145 0.836171 0.00383813 1.28569 8.31485e-06 1.75426L0 13.7437C0.00383813 14.2143 0.191145 14.6638 0.520279 14.9932C0.848576 15.3217 1.29109 15.5038 1.75277 15.4999H21.7472ZM21.7462 15.9999L21.7451 15.9999L21.7472 15.9999H21.7462Z" fill="#FAFAFA"/>
<path d="M12.3624 15.7499H21.7472C22.274 15.7543 22.781 15.5493 23.1566 15.1799C23.5322 14.8105 23.7456 14.3071 23.75 13.7803V11.4217C20.2062 13.456 16.3628 14.9168 12.3624 15.7499Z" fill="#FFA500"/>
<path d="M22.9224 9.04648H22.07L21.11 7.78027H21.019V9.04648H20.3238V5.90165H21.35C22.1528 5.90165 22.6162 6.23269 22.6162 6.82855C22.6162 7.31682 22.3266 7.63131 21.8052 7.73062L22.9224 9.04648ZM21.8962 6.85338C21.8962 6.54717 21.6645 6.38993 21.2341 6.38993H21.019V7.34165H21.2176C21.6645 7.34165 21.8962 7.17614 21.8962 6.85338ZM17.8907 5.90165H19.8604V6.43131H18.5859V7.13476H19.8107V7.67269H18.5859V8.5251H19.8604V9.05476H17.8907V5.90165ZM15.6562 9.12924L14.15 5.89338H14.9114L15.8631 8.012L16.8231 5.89338H17.5679L16.0452 9.12924H15.6562ZM9.35828 9.12096C8.29897 9.12096 7.47139 8.40096 7.47139 7.46579C7.47139 6.55545 8.31553 5.81889 9.37484 5.81889C9.67277 5.81889 9.92104 5.87682 10.2273 6.00924V6.73751C9.99536 6.50969 9.68336 6.38192 9.35828 6.38165C8.69621 6.38165 8.19139 6.86165 8.19139 7.46579C8.19139 8.10303 8.68794 8.5582 9.39139 8.5582C9.70587 8.5582 9.94587 8.45889 10.2273 8.21062V8.93889C9.91277 9.07131 9.64794 9.12096 9.35828 9.12096ZM7.25622 8.08648C7.25622 8.69889 6.75139 9.12096 6.02311 9.12096C5.49346 9.12096 5.11277 8.93889 4.79001 8.5251L5.24518 8.13614C5.40242 8.41751 5.66725 8.5582 5.99828 8.5582C6.31277 8.5582 6.53621 8.36786 6.53621 8.11958C6.53621 7.97889 6.47001 7.87131 6.32932 7.78855C6.17506 7.71369 6.01442 7.65276 5.84932 7.60648C5.19553 7.39958 4.97208 7.17614 4.97208 6.73751C4.97208 6.22441 5.45208 5.83545 6.08104 5.83545C6.47828 5.83545 6.83415 5.95958 7.13208 6.19131L6.76794 6.6051C6.62362 6.44688 6.41934 6.35676 6.20518 6.35682C5.90725 6.35682 5.69208 6.50579 5.69208 6.70441C5.69208 6.86993 5.81622 6.96096 6.23001 7.10165C7.02449 7.34993 7.25622 7.58165 7.25622 8.09476V8.08648ZM3.83828 5.90165H4.53346V9.05476H3.83828V5.90165ZM1.6038 9.05476H0.577595V5.90165H1.6038C2.72932 5.90165 3.50725 6.54717 3.50725 7.47407C3.50725 7.94579 3.27553 8.39269 2.87001 8.69062C2.52242 8.93889 2.13346 9.05476 1.59553 9.05476H1.6038ZM2.41484 6.68786C2.18311 6.50579 1.91828 6.43958 1.46311 6.43958H1.27277V8.5251H1.46311C1.91001 8.5251 2.19139 8.44234 2.41484 8.27682C2.65484 8.0782 2.79553 7.78027 2.79553 7.47407C2.79553 7.16786 2.65484 6.8782 2.41484 6.68786Z" fill="#333333"/>
<path d="M12.1638 5.81889C11.2535 5.81889 10.5086 6.54717 10.5086 7.44924C10.5086 8.40924 11.2204 9.12924 12.1638 9.12924C13.0907 9.12924 13.819 8.40096 13.819 7.47407C13.819 6.54717 13.099 5.81889 12.1638 5.81889Z" fill="#FFA500"/>
</svg>
