<svg width="16" height="16" viewBox="0 0 16 16" fill="none" xmlns="http://www.w3.org/2000/svg">
<path d="M7.64258 0C7.9974 0.000151231 8.28501 0.28776 8.28516 0.642578V7H14.6426C14.9975 7 15.285 7.28766 15.2852 7.64258C15.2852 7.99762 14.9976 8.28516 14.6426 8.28516H8.28516V14.6426C8.28516 14.9975 7.99749 15.285 7.64258 15.2852C7.28754 15.2852 7 14.9976 7 14.6426V8.28516H0.642578C0.287666 8.28501 0 7.99753 0 7.64258C0.00014506 7.28775 0.287756 7.00015 0.642578 7H7V0.642578C7.00015 0.287666 7.28763 0 7.64258 0Z" fill="#8B4513"/>
</svg>
